<?xml version="1.0" encoding="UTF-8" standalone="no"?>
<svg
   xmlns:dc="http://purl.org/dc/elements/1.1/"
   xmlns:cc="http://creativecommons.org/ns#"
   xmlns:rdf="http://www.w3.org/1999/02/22-rdf-syntax-ns#"
   xmlns:svg="http://www.w3.org/2000/svg"
   xmlns="http://www.w3.org/2000/svg"
   xmlns:sodipodi="http://sodipodi.sourceforge.net/DTD/sodipodi-0.dtd"
   xmlns:inkscape="http://www.inkscape.org/namespaces/inkscape"
   width="16"
   height="16"
   version="1.1"
   viewBox="0 0 4.233333 4.2333332"
   id="svg10"
   sodipodi:docname="nordvpn-changing-symbolic.svg"
   inkscape:version="0.92.4 5da689c313, 2019-01-14">
  <metadata
     id="metadata16">
    <rdf:RDF>
      <cc:Work
         rdf:about="">
        <dc:format>image/svg+xml</dc:format>
        <dc:type
           rdf:resource="http://purl.org/dc/dcmitype/StillImage" />
        <dc:title />
      </cc:Work>
    </rdf:RDF>
  </metadata>
  <defs
     id="defs14" />
  <sodipodi:namedview
     pagecolor="#ffffff"
     bordercolor="#666666"
     borderopacity="1"
     objecttolerance="10"
     gridtolerance="10"
     guidetolerance="10"
     inkscape:pageopacity="0"
     inkscape:pageshadow="2"
     inkscape:window-width="1870"
     inkscape:window-height="1021"
     id="namedview12"
     showgrid="false"
     units="px"
     inkscape:zoom="34.240346"
     inkscape:cx="8.4249741"
     inkscape:cy="6.3708006"
     inkscape:window-x="50"
     inkscape:window-y="25"
     inkscape:window-maximized="1"
     inkscape:current-layer="svg10" />
  <path
     style="fill:#a8a8a8;stroke-width:0.52391034"
     d="M 7.9628906 1.5 A 8.006388 8.1839872 0 0 0 7.5039062 1.5175781 C 7.4545381 1.5207034 7.4045913 1.525215 7.3554688 1.5292969 A 8.006388 8.1839872 0 0 0 6.9472656 1.5800781 C 6.7960127 1.600601 6.6445785 1.6213752 6.4960938 1.6503906 A 8.006388 8.1839872 0 0 0 6.1621094 1.7265625 C 6.0103538 1.7632617 5.8592239 1.8003148 5.7109375 1.8457031 A 8.006388 8.1839872 0 0 0 5.4453125 1.9355469 C 5.2756911 1.9942429 5.1057144 2.0551959 4.9414062 2.125 A 8.006388 8.1839872 0 0 0 4.765625 2.2050781 C 4.5769283 2.2907865 4.3896806 2.3806023 4.2089844 2.4804688 A 8.006388 8.1839872 0 0 0 4.1367188 2.5214844 C 3.0693193 3.1261933 2.1652349 3.9832599 1.4667969 5 L 14.554688 5 A 8.006388 8.1839872 0 0 0 7.9980469 1.5 A 8.006388 8.1839872 0 0 0 7.9941406 1.5 A 8.006388 8.1839872 0 0 0 7.9628906 1.5 z M 0.109375 11 A 7.9965321 8.1743317 0 0 0 0.15234375 11.298828 A 8.006388 8.1839872 0 0 0 0.17382812 11.394531 A 7.9965321 8.1743317 0 0 0 0.3359375 12.046875 A 8.006388 8.1839872 0 0 0 0.41601562 12.291016 A 7.9965321 8.1743317 0 0 0 0.59179688 12.787109 A 8.006388 8.1839872 0 0 0 0.74023438 13.125 A 7.9965321 8.1743317 0 0 0 0.91210938 13.492188 A 8.006388 8.1839872 0 0 0 1.171875 13.953125 A 7.9965321 8.1743317 0 0 0 1.2949219 14.158203 A 8.006388 8.1839872 0 0 0 1.5332031 14.5 L 3.6367188 11 L 0.109375 11 z M 12.375 11 L 14.46875 14.482422 A 8.006388 8.1839872 0 0 0 15.884766 11 L 12.375 11 z "
     transform="scale(0.26458332)"
     id="path6" />
  <path
     inkscape:connector-curvature="0"
     style="fill:#444444;stroke-width:0.26458332;fill-opacity:1"
     d="M 1.3229166,2.1166665 A 0.52916664,0.52916664 0 0 1 0.79374992,2.6458332 0.52916664,0.52916664 0 0 1 0.26458332,2.1166665 0.52916664,0.52916664 0 0 1 0.79374992,1.5874999 0.52916664,0.52916664 0 0 1 1.3229166,2.1166665 Z"
     id="path18" />
  <path
     inkscape:connector-curvature="0"
     style="fill:#444444;stroke-width:0.26458332;fill-opacity:1"
     d="M 2.6458332,2.1166665 A 0.52916664,0.52916664 0 0 1 2.1166665,2.6458332 0.52916664,0.52916664 0 0 1 1.5874999,2.1166665 0.52916664,0.52916664 0 0 1 2.1166665,1.5874999 0.52916664,0.52916664 0 0 1 2.6458332,2.1166665 Z"
     id="path20" />
  <path
     inkscape:connector-curvature="0"
     style="fill:#444444;stroke-width:0.26458332;fill-opacity:1"
     d="M 3.9687498,2.1166665 A 0.52916664,0.52916664 0 0 1 3.4395831,2.6458332 0.52916664,0.52916664 0 0 1 2.9104165,2.1166665 0.52916664,0.52916664 0 0 1 3.4395831,1.5874999 0.52916664,0.52916664 0 0 1 3.9687498,2.1166665 Z"
     id="path22" />
</svg>
