<?xml version="1.0" encoding="UTF-8" standalone="no"?>
<svg
   xmlns:dc="http://purl.org/dc/elements/1.1/"
   xmlns:cc="http://creativecommons.org/ns#"
   xmlns:rdf="http://www.w3.org/1999/02/22-rdf-syntax-ns#"
   xmlns:svg="http://www.w3.org/2000/svg"
   xmlns="http://www.w3.org/2000/svg"
   xmlns:sodipodi="http://sodipodi.sourceforge.net/DTD/sodipodi-0.dtd"
   xmlns:inkscape="http://www.inkscape.org/namespaces/inkscape"
   width="16"
   height="16"
   version="1.1"
   viewBox="0 0 4.233333 4.2333332"
   id="svg10"
   sodipodi:docname="nordvpn-disconnected-symbolic.svg"
   inkscape:version="0.92.4 5da689c313, 2019-01-14">
  <metadata
     id="metadata16">
    <rdf:RDF>
      <cc:Work
         rdf:about="">
        <dc:format>image/svg+xml</dc:format>
        <dc:type
           rdf:resource="http://purl.org/dc/dcmitype/StillImage" />
        <dc:title />
      </cc:Work>
    </rdf:RDF>
  </metadata>
  <defs
     id="defs14" />
  <sodipodi:namedview
     pagecolor="#ffffff"
     bordercolor="#666666"
     borderopacity="1"
     objecttolerance="10"
     gridtolerance="10"
     guidetolerance="10"
     inkscape:pageopacity="0"
     inkscape:pageshadow="2"
     inkscape:window-width="1870"
     inkscape:window-height="1021"
     id="namedview12"
     showgrid="false"
     units="px"
     inkscape:zoom="34.240346"
     inkscape:cx="11.111863"
     inkscape:cy="7.4221918"
     inkscape:window-x="50"
     inkscape:window-y="25"
     inkscape:window-maximized="1"
     inkscape:current-layer="svg10" />
  <path
     style="fill:#ff3361;fill-opacity:1;stroke-width:0.52391034"
     d="M 7.9628906 1.5 A 8.006388 8.1839872 0 0 0 7.5039062 1.5175781 C 7.4545381 1.5207034 7.4045913 1.525215 7.3554688 1.5292969 A 8.006388 8.1839872 0 0 0 6.9472656 1.5800781 C 6.7960127 1.600601 6.6445785 1.6213752 6.4960938 1.6503906 A 8.006388 8.1839872 0 0 0 6.1621094 1.7265625 C 6.0103538 1.7632617 5.8592239 1.8003148 5.7109375 1.8457031 A 8.006388 8.1839872 0 0 0 5.4453125 1.9355469 C 5.2756911 1.9942429 5.1057144 2.0551959 4.9414062 2.125 A 8.006388 8.1839872 0 0 0 4.765625 2.2050781 C 4.5769283 2.2907865 4.3896806 2.3806023 4.2089844 2.4804688 A 8.006388 8.1839872 0 0 0 4.1367188 2.5214844 C 1.6704804 3.9186712 1.7763568e-15 6.6095601 0 9.7011719 A 7.9965321 8.1743317 0 0 0 0.15234375 11.298828 A 8.006388 8.1839872 0 0 0 0.17382812 11.394531 A 7.9965321 8.1743317 0 0 0 0.3359375 12.046875 A 8.006388 8.1839872 0 0 0 0.41601562 12.291016 A 7.9965321 8.1743317 0 0 0 0.59179688 12.787109 A 8.006388 8.1839872 0 0 0 0.74023438 13.125 A 7.9965321 8.1743317 0 0 0 0.91210938 13.492188 A 8.006388 8.1839872 0 0 0 1.171875 13.953125 A 7.9965321 8.1743317 0 0 0 1.2949219 14.158203 A 8.006388 8.1839872 0 0 0 1.5332031 14.5 L 5.3671875 8.1210938 L 6.7519531 10.546875 L 6.3710938 8.7421875 L 8.0058594 5.9160156 L 10.648438 10.544922 L 10.271484 8.7597656 L 10.642578 8.1191406 L 11 8.7128906 L 11 5 L 14.554688 5 A 8.006388 8.1839872 0 0 0 7.9980469 1.5 A 8.006388 8.1839872 0 0 0 7.9941406 1.5 A 8.006388 8.1839872 0 0 0 7.9628906 1.5 z "
     id="path6"
     transform="scale(0.26458332)" />
  <path
     inkscape:connector-curvature="0"
     style="fill:#ff3361;stroke-width:0.26458332;fill-opacity:1"
     class="warning"
     d="m 3.1749998,1.5874998 v 1.0583334 l 0.066146,0.5291666 h 0.396875 L 3.7041664,2.6458332 V 1.5874998 Z m 0,1.8520833 V 3.9687498 H 3.7041664 V 3.4395831 Z"
     id="path4" />
</svg>
