<?xml version="1.0" encoding="UTF-8"?>
<!-- Created with Inkscape (http://www.inkscape.org/) -->
<svg width="10.316mm" height="10.316mm" version="1.1" viewBox="0 0 10.316 10.316" xmlns="http://www.w3.org/2000/svg" xmlns:cc="http://creativecommons.org/ns#" xmlns:dc="http://purl.org/dc/elements/1.1/" xmlns:rdf="http://www.w3.org/1999/02/22-rdf-syntax-ns#">
 <metadata>
  <rdf:RDF>
   <cc:Work rdf:about="">
    <dc:format>image/svg+xml</dc:format>
    <dc:type rdf:resource="http://purl.org/dc/dcmitype/StillImage"/>
    <dc:title/>
   </cc:Work>
  </rdf:RDF>
 </metadata>
 <g transform="translate(370.3 -17.732)" stroke-width=".33384">
  <ellipse cx="-365.15" cy="22.89" rx="5.1582" ry="5.158" fill="#fff"/>
  <ellipse cx="-389.01" cy="13.967" rx="5.1582" ry="5.158" fill="#f42a43" opacity=".306"/>
 </g>
 <g transform="translate(370.3 -17.732)">
  <path transform="matrix(.26458 0 0 .26458 -370.3 17.732)" d="m19.494 0c-10.766 0-19.494 8.7442-19.494 19.533a19.472 19.472 0 0 0 3.7109 11.467l9.3574-15.227 3.373 5.7754-0.92773-4.2969 3.9805-6.7324 6.4336 11.029-0.91602-4.2539 0.9043-1.5293 9.3613 15.234a19.47 19.47 0 0 0 3.7109-11.467c0-10.789-8.7271-19.533-19.494-19.533z" fill="#27be5f" fill-rule="evenodd"/>
  <ellipse cx="-389.01" cy="13.967" rx="5.1582" ry="5.158" fill="#f42a43" opacity=".306" stroke-width=".33384"/>
 </g>
</svg>
