<?xml version="1.0" encoding="UTF-8"?>
<!-- Created with Inkscape (http://www.inkscape.org/) -->
<svg width="10.316mm" height="10.316mm" version="1.1" viewBox="0 0 10.316 10.316" xmlns="http://www.w3.org/2000/svg" xmlns:cc="http://creativecommons.org/ns#" xmlns:dc="http://purl.org/dc/elements/1.1/" xmlns:rdf="http://www.w3.org/1999/02/22-rdf-syntax-ns#">
 <metadata>
  <rdf:RDF>
   <cc:Work rdf:about="">
    <dc:format>image/svg+xml</dc:format>
    <dc:type rdf:resource="http://purl.org/dc/dcmitype/StillImage"/>
    <dc:title/>
   </cc:Work>
  </rdf:RDF>
 </metadata>
 <g>
  <ellipse cx="5.15" cy="5.158" rx="5.1582" ry="5.158" fill="#fff" stroke-width=".33384"/>
 </g>
 <g>
  <path transform="scale(.26458)" d="m19.465 0a19.496 19.495 0 0 0-0.072266 0.0019531 19.496 19.495 0 0 0-1.1211 0.041016c-0.12022 0.0074565-0.23976 0.017714-0.35938 0.027344a19.496 19.495 0 0 0-0.99414 0.11914c-0.36831 0.048823-0.73613 0.098838-1.0977 0.16797a19.496 19.495 0 0 0-0.81445 0.18359c-0.36954 0.087388-0.73852 0.17507-1.0996 0.2832a19.496 19.495 0 0 0-0.64844 0.21484c-0.41304 0.13982-0.8245 0.28294-1.2246 0.44922a19.496 19.495 0 0 0-0.42773 0.19141c-0.45948 0.20416-0.9155 0.41641-1.3555 0.6543a19.496 19.495 0 0 0-0.17578 0.099609c-6.0054 3.3283-10.074 9.7355-10.074 17.1a19.472 19.472 0 0 0 0.37109 3.8066 19.496 19.495 0 0 0 0.052734 0.22852 19.472 19.472 0 0 0 0.39258 1.5527 19.496 19.495 0 0 0 0.19531 0.58594 19.472 19.472 0 0 0 0.42969 1.1777 19.496 19.495 0 0 0 0.35938 0.80664 19.472 19.472 0 0 0 0.41992 0.87305 19.496 19.495 0 0 0 0.63281 1.1016 19.472 19.472 0 0 0 0.29883 0.48828 19.496 19.495 0 0 0 0.58008 0.8125l9.3359-15.193 3.373 5.7754-0.92773-4.2969 3.9805-6.7324 6.4336 11.027-0.91602-4.252 0.9043-1.5293 9.3164 15.16a19.496 19.495 0 0 0 3.7285-11.432 19.496 19.495 0 0 0-19.486-19.494 19.496 19.495 0 0 0-0.009765 0z" fill="#ff3361" stroke-width="1.2618"/>
 </g>
</svg>
