<?xml version="1.0" encoding="UTF-8" standalone="no"?>
<svg
   xmlns:dc="http://purl.org/dc/elements/1.1/"
   xmlns:cc="http://creativecommons.org/ns#"
   xmlns:rdf="http://www.w3.org/1999/02/22-rdf-syntax-ns#"
   xmlns:svg="http://www.w3.org/2000/svg"
   xmlns="http://www.w3.org/2000/svg"
   xmlns:sodipodi="http://sodipodi.sourceforge.net/DTD/sodipodi-0.dtd"
   xmlns:inkscape="http://www.inkscape.org/namespaces/inkscape"
   width="11.3666mm"
   height="11.3666mm"
   version="1.1"
   viewBox="0 0 11.366599 11.366601"
   id="svg10"
   sodipodi:docname="nordvpn-disconnected-symbolic.svg"
   inkscape:version="0.92.4 5da689c313, 2019-01-14">
  <metadata
     id="metadata16">
    <rdf:RDF>
      <cc:Work
         rdf:about="">
        <dc:format>image/svg+xml</dc:format>
        <dc:type
           rdf:resource="http://purl.org/dc/dcmitype/StillImage" />
        <dc:title />
      </cc:Work>
    </rdf:RDF>
  </metadata>
  <defs
     id="defs14" />
  <sodipodi:namedview
     pagecolor="#ffffff"
     bordercolor="#666666"
     borderopacity="1"
     objecttolerance="10"
     gridtolerance="10"
     guidetolerance="10"
     inkscape:pageopacity="0"
     inkscape:pageshadow="2"
     inkscape:window-width="1870"
     inkscape:window-height="1021"
     id="namedview12"
     showgrid="false"
     inkscape:zoom="8.5600865"
     inkscape:cx="-28.311052"
     inkscape:cy="5.7823596"
     inkscape:window-x="50"
     inkscape:window-y="25"
     inkscape:window-maximized="1"
     inkscape:current-layer="svg10">
    <sodipodi:guide
       position="0.52916669,-0.63001379"
       orientation="0,38.960392"
       id="guide814"
       inkscape:locked="false" />
    <sodipodi:guide
       position="10.837438,-0.63001379"
       orientation="-38.960392,0"
       id="guide816"
       inkscape:locked="false" />
    <sodipodi:guide
       position="10.837438,9.6782571"
       orientation="0,-38.960392"
       id="guide818"
       inkscape:locked="false" />
    <sodipodi:guide
       position="0.52916669,9.6782571"
       orientation="38.960392,0"
       id="guide820"
       inkscape:locked="false" />
    <sodipodi:guide
       position="0.52916669,-0.63001379"
       orientation="0,38.960392"
       id="guide822"
       inkscape:locked="false" />
    <sodipodi:guide
       position="10.837438,-0.63001379"
       orientation="-38.960392,0"
       id="guide824"
       inkscape:locked="false" />
    <sodipodi:guide
       position="10.837438,9.6782571"
       orientation="0,-38.960392"
       id="guide826"
       inkscape:locked="false" />
    <sodipodi:guide
       position="0.52916669,9.6782571"
       orientation="38.960392,0"
       id="guide828"
       inkscape:locked="false" />
  </sodipodi:namedview>
  <g
     transform="translate(0.52908832,3.8033321)"
     id="g4" />
  <path
     style="fill:#a8a8a5;fill-opacity:1;stroke:#ff3361;stroke-width:1.0583334;stroke-linejoin:round;stroke-miterlimit:4;stroke-dasharray:none;stroke-opacity:1"
     inkscape:connector-curvature="0"
     id="path6"
     d="m 5.679138,1.6883427 a 5.1582517,5.1579871 0 0 0 -0.019121,5.167e-4 5.1582517,5.1579871 0 0 0 -0.2966206,0.010852 c -0.031808,0.00197 -0.063436,0.00469 -0.095085,0.00723 a 5.1582517,5.1579871 0 0 0 -0.2630293,0.031522 c -0.097447,0.012918 -0.1947653,0.02615 -0.2904295,0.044442 a 5.1582517,5.1579871 0 0 0 -0.2154872,0.048574 c -0.097773,0.023121 -0.1953976,0.04632 -0.2909322,0.074929 A 5.1582517,5.1579871 0 0 0 4.0368688,1.9632553 C 3.9275867,2.0002489 3.8187226,2.0381156 3.7128641,2.08211 A 5.1582517,5.1579871 0 0 0 3.5996953,2.1327532 C 3.4781261,2.1867699 3.3574723,2.242927 3.2410571,2.3058679 a 5.1582517,5.1579871 0 0 0 -0.046508,0.026355 C 1.6056405,3.2128241 0.52917034,4.908041 0.52917034,6.8565404 a 5.1519018,5.1519018 0 0 0 0.098183,1.0071503 5.1582517,5.1579871 0 0 0 0.0139524,0.060462 5.1519018,5.1519018 0 0 0 0.10386882,0.4108134 5.1582517,5.1579871 0 0 0 0.0516751,0.155028 5.1519018,5.1519018 0 0 0 0.11368738,0.3115958 5.1582517,5.1579871 0 0 0 0.0950848,0.2134208 5.1519018,5.1519018 0 0 0 0.1111024,0.2309911 5.1582517,5.1579871 0 0 0 0.1674289,0.291462 5.1519018,5.1519018 0 0 0 0.079064,0.129188 5.1582517,5.1579871 0 0 0 0.1534776,0.214972 L 3.9867875,5.8618599 4.8792158,7.3899152 4.633757,6.2530414 5.6869177,4.471783 7.3891196,7.3893067 7.146759,6.2643125 7.3860187,5.8596903 9.8509519,9.8707228 A 5.1582517,5.1579871 0 0 0 10.837439,6.8460446 5.1582517,5.1579871 0 0 0 5.6818325,1.688322 a 5.1582517,5.1579871 0 0 0 -0.00259,0 z" />
</svg>
