<?xml version="1.0" encoding="UTF-8" standalone="no"?>
<svg
   xmlns:dc="http://purl.org/dc/elements/1.1/"
   xmlns:cc="http://creativecommons.org/ns#"
   xmlns:rdf="http://www.w3.org/1999/02/22-rdf-syntax-ns#"
   xmlns:svg="http://www.w3.org/2000/svg"
   xmlns="http://www.w3.org/2000/svg"
   xmlns:sodipodi="http://sodipodi.sourceforge.net/DTD/sodipodi-0.dtd"
   xmlns:inkscape="http://www.inkscape.org/namespaces/inkscape"
   width="16"
   height="16"
   version="1.1"
   id="svg4"
   sodipodi:docname="nordvpn-changing-symbolic.svg"
   inkscape:version="0.92.4 5da689c313, 2019-01-14">
  <metadata
     id="metadata10">
    <rdf:RDF>
      <cc:Work
         rdf:about="">
        <dc:format>image/svg+xml</dc:format>
        <dc:type
           rdf:resource="http://purl.org/dc/dcmitype/StillImage" />
        <dc:title />
      </cc:Work>
    </rdf:RDF>
  </metadata>
  <defs
     id="defs8" />
  <sodipodi:namedview
     pagecolor="#ffffff"
     bordercolor="#666666"
     borderopacity="1"
     objecttolerance="10"
     gridtolerance="10"
     guidetolerance="10"
     inkscape:pageopacity="0"
     inkscape:pageshadow="2"
     inkscape:window-width="1870"
     inkscape:window-height="1021"
     id="namedview6"
     showgrid="false"
     inkscape:zoom="29.5"
     inkscape:cx="21.911944"
     inkscape:cy="3.5330699"
     inkscape:window-x="50"
     inkscape:window-y="25"
     inkscape:window-maximized="1"
     inkscape:current-layer="svg4" />
  <path
     style="fill:#444444"
     d="M 8 0 C 5.784 0 4 1.784 4 4 L 4 5 L 6 5 L 6 4 C 6 2.892 6.892 2 8 2 C 9.108 2 10 2.892 10 4 L 10 5 L 12 5 L 12 4 C 12 1.784 10.216 0 8 0 z M 2 11 L 2 15 C 2 15.554 2.446 16 3 16 L 13 16 C 13.554 16 14 15.554 14 15 L 14 11 L 2 11 z "
     id="path2" />
  <path
     inkscape:connector-curvature="0"
     style="fill:#444444"
     d="M 5,7.9999998 A 2,2 0 0 1 3,10 2,2 0 0 1 1,7.9999998 a 2,2 0 0 1 2,-2 2,2 0 0 1 2,2 z"
     id="path18" />
  <path
     inkscape:connector-curvature="0"
     style="fill:#444444"
     d="M 10,7.9999998 A 2,2 0 0 1 8,10 2,2 0 0 1 6,7.9999998 a 2,2 0 0 1 2,-2 2,2 0 0 1 2,2 z"
     id="path20" />
  <path
     inkscape:connector-curvature="0"
     style="fill:#444444"
     d="M 15,7.9999998 A 2,2 0 0 1 13,10 2,2 0 0 1 11,7.9999998 a 2,2 0 0 1 2,-2 2,2 0 0 1 2,2 z"
     id="path22" />
</svg>
