<?xml version="1.0" encoding="UTF-8" standalone="no"?>
<svg
   xmlns:dc="http://purl.org/dc/elements/1.1/"
   xmlns:cc="http://creativecommons.org/ns#"
   xmlns:rdf="http://www.w3.org/1999/02/22-rdf-syntax-ns#"
   xmlns:svg="http://www.w3.org/2000/svg"
   xmlns="http://www.w3.org/2000/svg"
   xmlns:sodipodi="http://sodipodi.sourceforge.net/DTD/sodipodi-0.dtd"
   xmlns:inkscape="http://www.inkscape.org/namespaces/inkscape"
   width="16"
   height="16"
   version="1.1"
   id="svg4"
   sodipodi:docname="nordvpn-connected-symbolic.svg"
   inkscape:version="0.92.4 5da689c313, 2019-01-14">
  <metadata
     id="metadata10">
    <rdf:RDF>
      <cc:Work
         rdf:about="">
        <dc:format>image/svg+xml</dc:format>
        <dc:type
           rdf:resource="http://purl.org/dc/dcmitype/StillImage" />
      </cc:Work>
    </rdf:RDF>
  </metadata>
  <defs
     id="defs8" />
  <sodipodi:namedview
     pagecolor="#ffffff"
     bordercolor="#666666"
     borderopacity="1"
     objecttolerance="10"
     gridtolerance="10"
     guidetolerance="10"
     inkscape:pageopacity="0"
     inkscape:pageshadow="2"
     inkscape:window-width="1870"
     inkscape:window-height="1021"
     id="namedview6"
     showgrid="false"
     inkscape:zoom="29.5"
     inkscape:cx="16.025473"
     inkscape:cy="3.5010736"
     inkscape:window-x="50"
     inkscape:window-y="25"
     inkscape:window-maximized="1"
     inkscape:current-layer="svg4" />
  <path
     style="fill:#444444"
     d="m 8,2.0000003 c -2.216,0 -4,1.784 -4,4 v 2 H 3 c -0.554,0 -1,0.446 -1,1 V 15 c 0,0.554 0.446,1 1,1 h 10 c 0.554,0 1,-0.446 1,-1 V 9.0000003 c 0,-0.554 -0.446,-1 -1,-1 h -1 v -2 c 0,-2.216 -1.784,-4 -4,-4 z m 0,2 c 1.108,0 2,0.892 2,2 v 2 H 6 v -2 c 0,-1.108 0.892,-2 2,-2 z"
     id="path2"
     inkscape:connector-curvature="0" />
</svg>
